<svg width="94" height="32" viewBox="0 0 94 32" fill="none" xmlns="http://www.w3.org/2000/svg">
<path d="M26.5659 31.9388H0.753906C0.962983 30.7408 1.15259 29.5963 1.36251 28.4553C2.34441 23.1278 3.33054 17.8003 4.31921 12.4746C4.66372 10.618 5.00146 8.76066 5.37983 6.91083C5.48987 6.37465 5.40522 5.98591 5.00569 5.58713C3.10453 3.6929 3.14262 3.68955 3.67082 1.08153C3.83757 0.258822 4.17785 -0.0168085 5.04209 0.000784982C7.81087 0.0585921 10.5822 0.0418364 13.3518 0.00916282C14.0679 0.000784982 14.1813 0.221122 14.051 0.877945C13.6007 3.15337 13.2113 5.44135 12.7788 7.82988H31.0488C29.5446 15.9178 28.0616 23.8902 26.5651 31.9379L26.5659 31.9388ZM9.63245 24.8495C9.72895 24.9307 9.74927 24.9642 9.77043 24.9642C13.0886 24.9869 16.4058 25.0145 19.724 25.0036C19.889 25.0036 20.1616 24.6936 20.2005 24.4934C20.7617 21.6223 21.2942 18.7454 21.8232 15.8684C21.885 15.5333 21.8842 15.1873 21.9146 14.8128C21.6886 14.781 21.5557 14.7458 21.4228 14.7458C18.3222 14.7416 15.2216 14.7533 12.1211 14.7307C11.548 14.7265 11.432 15.0407 11.3508 15.4788C11.0613 17.038 10.7523 18.5937 10.4654 20.1537C10.175 21.7337 9.90248 23.3172 9.63076 24.8495H9.63245Z" fill="#F9D729"/>
<path d="M49.4837 31.9371C49.9111 29.629 50.3014 27.5078 50.6967 25.3873C51.2883 22.213 51.8927 19.0403 52.4725 15.8634C52.6494 14.8958 52.4539 14.683 51.4424 14.6804C48.4501 14.6721 45.4571 14.6905 42.4648 14.6654C41.9171 14.6612 41.7005 14.8204 41.6031 15.3649C41.0444 18.4898 40.4451 21.6081 39.8636 24.7297C39.4573 26.9096 39.0756 29.0937 38.6329 31.2661C38.5804 31.5216 38.2156 31.9011 37.9879 31.9061C35.8277 31.9539 33.6658 31.9346 31.5048 31.9262C31.3787 31.9262 31.2526 31.8584 31.0469 31.7989C31.366 30.0513 31.6758 28.3355 31.9941 26.6205C33.1232 20.5391 34.2609 14.4601 35.3731 8.37528C35.4544 7.93209 35.6102 7.77627 36.0579 7.7771C42.2371 7.79051 48.4163 7.73019 54.5938 7.81983C58.2801 7.87345 60.7831 11.1601 60.1127 14.8874C59.2019 19.9518 58.248 25.0078 57.2974 30.0647C56.9444 31.9396 56.9249 31.9363 54.9408 31.9363C53.1743 31.9363 51.4085 31.9363 49.4828 31.9363L49.4837 31.9371Z" fill="#F9D729"/>
<path d="M86.0652 31.874H78.5943C78.9252 30.108 79.2435 28.4215 79.5567 26.7342C80.2203 23.1552 80.8899 19.577 81.5374 15.9946C81.7448 14.846 81.5874 14.6835 80.4167 14.6818C77.5066 14.6776 74.5964 14.707 71.6871 14.6609C70.9533 14.6492 70.7315 14.9491 70.6181 15.5774C69.6683 20.8287 68.7059 26.0782 67.7172 31.3227C67.6732 31.5548 67.3406 31.9067 67.1366 31.9109C64.8697 31.9527 62.6012 31.9377 60.2227 31.9377C60.2531 31.4928 60.2413 31.1192 60.309 30.7606C61.0268 26.9126 61.7624 23.0689 62.4819 19.2209C63.1455 15.6696 63.8091 12.1182 64.4363 8.56098C64.5455 7.94353 64.7961 7.77095 65.4149 7.77346C71.3452 7.79608 77.2755 7.77263 83.2067 7.79273C87.4127 7.80698 90.0114 11.1841 89.1607 15.2834C88.3481 19.1958 87.7107 23.1435 86.987 27.0743C86.6907 28.6837 86.3707 30.2889 86.066 31.8748L86.0652 31.874Z" fill="#F9D729"/>
<path d="M92.6545 28.6411C92.9973 29.0089 93.1692 29.4672 93.1692 30.0151C93.1692 30.563 92.9973 31.0179 92.6545 31.3865C92.3117 31.756 91.8419 31.9403 91.2443 31.9403C90.6467 31.9403 90.182 31.756 89.8375 31.3865C89.493 31.0171 89.3203 30.5596 89.3203 30.0151C89.3203 29.4705 89.4921 29.0081 89.8375 28.6411C90.182 28.2733 90.6509 28.0898 91.2443 28.0898C91.8377 28.0898 92.3117 28.2733 92.6545 28.6411ZM89.7249 30.005C89.7249 30.4591 89.8604 30.8344 90.1329 31.1318C90.4046 31.4293 90.7754 31.5775 91.2443 31.5775C91.7133 31.5775 92.0849 31.4293 92.3583 31.1318C92.6317 30.8344 92.7688 30.4608 92.7688 30.0109C92.7688 29.561 92.6325 29.1815 92.3608 28.8841C92.0891 28.5867 91.7166 28.4384 91.2443 28.4384C90.772 28.4384 90.4004 28.5867 90.1304 28.8841C89.8604 29.1815 89.7249 29.5585 89.7249 30.0159V30.005ZM91.6117 30.2471C91.7928 30.2153 91.93 30.1324 92.0222 29.9966C92.1145 29.8609 92.1526 29.7193 92.1365 29.5719C92.1204 29.4244 92.0493 29.2912 91.9232 29.1739C91.7971 29.0566 91.6312 28.9972 91.4246 28.9972H90.5079V30.976H90.8753V30.2899H91.2215L91.7759 30.976H92.1814V30.9023L91.6108 30.2429V30.248L91.6117 30.2471ZM91.4255 29.3398C91.511 29.3398 91.5829 29.3616 91.6413 29.406C91.6997 29.4504 91.7353 29.5032 91.748 29.5669C91.7607 29.6305 91.7598 29.6925 91.7454 29.7545C91.731 29.8165 91.6946 29.8685 91.6362 29.9129C91.5778 29.9573 91.5033 29.979 91.4153 29.979H90.877V29.3407H91.4263L91.4255 29.3398Z" fill="#F9D729"/>
</svg>
